<?xml version="1.0" standalone="no"?>
<!DOCTYPE svg PUBLIC "-//W3C//DTD SVG 20010904//EN"
 "http://www.w3.org/TR/2001/REC-SVG-20010904/DTD/svg10.dtd">
<svg version="1.0" xmlns="http://www.w3.org/2000/svg"
 width="461.000000pt" height="394.000000pt" viewBox="0 0 461.000000 394.000000"
 preserveAspectRatio="xMidYMid meet">

<g transform="translate(0.000000,394.000000) scale(0.100000,-0.100000)"
fill="#000000" stroke="none">
<path d="M0 1975 l0 -1965 2305 0 2305 0 0 1965 0 1965 -2305 0 -2305 0 0
-1965z m1950 1451 c0 -17 -271 -150 -397 -196 l-63 -23 0 -139 0 -139 -50 -60
-50 -60 0 230 c0 226 0 231 21 231 59 0 429 108 499 146 26 14 40 17 40 10z
m797 -47 c57 -21 173 -56 258 -76 l155 -38 0 -224 c0 -124 -3 -221 -8 -215 -4
5 -23 26 -42 47 l-35 38 -5 147 -5 147 -105 42 c-121 49 -294 134 -330 164
-29 24 -34 26 117 -32z m-579 -270 c-4 -12 -280 -309 -287 -309 -3 0 -26 64
-50 143 -24 78 -46 147 -49 154 -2 8 16 13 60 16 113 7 329 4 326 -4z m563 3
l46 -7 -46 -147 c-25 -80 -49 -149 -52 -152 -5 -6 -299 297 -299 308 0 8 293
6 351 -2z m-481 -177 l0 -165 -151 0 -150 0 19 25 c25 31 275 305 279 305 2 0
3 -74 3 -165z m212 2 l148 -162 -147 -3 c-80 -1 -147 -1 -148 0 -7 9 -14 328
-8 327 4 0 74 -73 155 -162z m-688 -20 c24 -81 41 -149 38 -152 -7 -7 -352 -6
-352 1 0 8 263 304 267 301 2 -2 23 -70 47 -150z m1195 -2 c67 -76 121 -142
121 -145 0 -10 -338 -11 -344 -1 -3 5 12 69 34 142 51 169 49 164 59 153 5 -5
63 -72 130 -149z m-1006 -603 c71 -210 127 -387 125 -392 -2 -5 -61 64 -133
153 -71 89 -214 264 -317 389 -104 126 -188 231 -188 233 0 3 87 4 193 3 l192
-3 128 -383z m667 381 c-1 -9 -338 -386 -349 -391 -6 -2 -293 311 -344 375
l-18 23 355 0 c196 0 356 -3 356 -7z m470 1 c0 -6 -109 -142 -255 -319 -50
-60 -155 -190 -234 -288 -79 -98 -145 -177 -147 -174 -2 2 55 180 127 395
l131 392 189 0 c104 0 189 -3 189 -6z m57 -156 c-11 -161 -70 -357 -152 -504
-45 -80 -136 -202 -209 -279 l-56 -60 64 92 c147 213 239 450 261 678 6 62 11
74 49 117 22 26 43 47 45 48 2 0 1 -42 -2 -92z m-1663 -88 c18 -218 110 -448
270 -675 l56 -80 -71 75 c-135 142 -229 298 -289 478 -43 130 -60 215 -60 312
l0 64 44 -49 c41 -47 44 -54 50 -125z m610 -47 l146 -162 -2 -321 -3 -321
-104 333 c-91 291 -184 581 -207 643 -9 26 -12 29 170 -172z m511 150 c-8 -21
-53 -159 -100 -308 -48 -148 -102 -317 -120 -375 -19 -58 -46 -144 -60 -192
-14 -49 -28 -88 -30 -88 -2 0 -4 145 -4 323 l-1 322 162 178 c88 97 162 177
164 177 1 0 -4 -17 -11 -37z m-1770 -1614 c16 -8 40 -29 52 -48 20 -29 23 -47
23 -125 0 -74 -4 -97 -20 -124 -33 -54 -67 -62 -260 -62 l-170 0 0 183 c0 101
3 187 8 191 13 14 334 1 367 -15z m275 -175 l0 -184 -35 0 -35 0 0 184 0 185
28 3 c15 2 30 2 35 0 4 -2 7 -86 7 -188z m903 51 c48 -77 92 -144 96 -148 5
-5 49 57 100 136 l91 145 51 4 c28 1 53 1 55 -1 2 -2 4 -87 4 -188 l0 -183
-35 0 -35 0 0 152 0 151 -83 -129 c-46 -71 -89 -139 -96 -151 -9 -17 -21 -23
-46 -23 -32 0 -37 5 -127 147 l-93 147 -3 -147 -3 -147 -34 0 -35 0 0 184 c0
183 0 185 23 189 71 15 75 11 170 -138z m917 132 c19 -7 44 -27 57 -46 20 -29
23 -47 23 -128 0 -178 -19 -193 -245 -193 -227 0 -240 11 -240 191 0 169 24
188 240 188 75 0 145 -5 165 -12z m444 -148 l145 -148 3 152 3 152 30 0 30 0
3 -187 2 -188 -47 0 -48 0 -152 152 -153 153 0 -153 0 -152 -30 0 c-29 0 -30
2 -31 48 -5 165 -5 271 -2 297 4 29 5 30 53 27 49 -4 50 -5 194 -153z m733
136 c48 -28 63 -69 63 -172 0 -71 -4 -95 -20 -121 -33 -54 -68 -62 -255 -62
l-165 0 0 191 0 191 173 -4 c148 -3 177 -6 204 -23z m-2517 -127 c46 -79 94
-162 108 -185 l24 -43 -40 0 c-34 0 -41 4 -57 34 -18 32 -21 34 -89 38 -39 2
-102 2 -139 0 -66 -4 -69 -6 -85 -38 -14 -30 -20 -34 -55 -34 -49 0 -53 -12
71 202 l97 168 41 0 41 0 83 -142z m-176 -398 c28 -10 37 -50 11 -50 -8 0 -15
7 -15 15 0 13 -13 15 -72 13 -70 -3 -73 -4 -73 -28 0 -24 3 -25 75 -30 41 -3
81 -9 88 -13 13 -9 17 -83 4 -91 -5 -3 -46 -6 -91 -8 -72 -3 -84 -1 -97 16
-10 14 -11 23 -3 30 7 8 14 6 22 -5 13 -17 91 -31 124 -23 12 3 24 12 27 20
12 31 -5 41 -76 48 -39 3 -77 11 -85 17 -19 17 -17 76 5 88 22 13 123 14 156
1z m286 -37 l0 -43 80 0 80 0 0 45 c0 33 4 45 15 45 12 0 15 -18 15 -105 0
-89 -2 -104 -15 -99 -10 4 -15 20 -15 50 l0 44 -80 0 -80 0 0 -50 c0 -38 -4
-50 -15 -50 -12 0 -15 18 -15 103 0 86 3 104 15 104 11 0 15 -12 15 -44z m450
-58 c0 -79 -3 -103 -12 -99 -9 3 -14 36 -16 104 -3 86 -1 100 12 100 14 0 16
-16 16 -105z m430 89 c0 -8 -5 -12 -10 -9 -6 3 -42 3 -80 -1 -69 -6 -70 -7
-70 -35 l0 -29 75 0 c43 0 75 -4 75 -10 0 -6 -32 -10 -75 -10 l-75 0 0 -35 0
-35 80 0 c57 0 80 -4 80 -12 0 -9 -19 -12 -67 -11 -38 1 -80 2 -95 2 l-28 1 0
100 0 100 95 0 c79 0 95 -3 95 -16z m250 -74 l0 -90 75 0 c41 0 75 -4 75 -9 0
-10 -117 -21 -154 -14 -26 5 -26 6 -26 104 0 81 3 99 15 99 12 0 15 -17 15
-90z m562 61 c24 -31 25 -120 1 -150 -16 -19 -30 -22 -106 -24 l-87 -2 0 104
0 104 87 -5 c74 -4 89 -8 105 -27z m-2302 -71 c0 -6 -112 -10 -315 -10 -203 0
-315 4 -315 10 0 6 112 10 315 10 203 0 315 -4 315 -10z m3085 0 c4 -7 -100
-10 -304 -10 -201 0 -311 4 -311 10 0 6 108 10 304 10 193 0 307 -4 311 -10z"/>
<path d="M540 765 l0 -125 130 0 c126 0 132 1 155 25 22 22 25 32 25 105 0
118 -4 120 -175 120 l-135 0 0 -125z"/>
<path d="M2735 891 c-104 -6 -110 -7 -122 -31 -7 -14 -13 -60 -13 -102 0 -116
4 -118 179 -118 171 0 171 0 171 126 0 130 -11 136 -215 125z"/>
<path d="M3810 765 l0 -125 121 0 c115 0 154 8 171 34 4 6 8 48 8 94 0 119 -4
122 -170 122 l-130 0 0 -125z"/>
<path d="M1427 801 l-46 -81 96 0 95 0 -37 68 c-59 105 -56 105 -108 13z"/>
<path d="M3240 315 l0 -75 63 0 c36 0 68 5 75 12 7 7 12 35 12 63 0 28 -5 56
-12 63 -7 7 -39 12 -75 12 l-63 0 0 -75z"/>
</g>
</svg>
